<svg width="30" height="31" viewBox="0 0 30 31" fill="none" xmlns="http://www.w3.org/2000/svg">
<path d="M23.0462 26.6714H6.95374C6.12493 26.6714 5.33008 26.3421 4.74403 25.7561C4.15798 25.17 3.82874 24.3752 3.82874 23.5464V7.45386C3.82874 6.62506 4.15798 5.8302 4.74403 5.24415C5.33008 4.6581 6.12493 4.32886 6.95374 4.32886H23.0462C23.875 4.32886 24.6699 4.6581 25.2559 5.24415C25.842 5.8302 26.1712 6.62506 26.1712 7.45386V23.5464C26.1712 24.3752 25.842 25.17 25.2559 25.7561C24.6699 26.3421 23.875 26.6714 23.0462 26.6714ZM6.95374 5.57886C6.45645 5.57886 5.97954 5.7764 5.62791 6.12803C5.27628 6.47966 5.07874 6.95658 5.07874 7.45386V23.5464C5.07874 24.0436 5.27628 24.5206 5.62791 24.8722C5.97954 25.2238 6.45645 25.4214 6.95374 25.4214H23.0462C23.5435 25.4214 24.0204 25.2238 24.3721 24.8722C24.7237 24.5206 24.9212 24.0436 24.9212 23.5464V7.45386C24.9212 6.95658 24.7237 6.47966 24.3721 6.12803C24.0204 5.7764 23.5435 5.57886 23.0462 5.57886H6.95374Z" fill="#85B6FF"/>
<path d="M15 21.2424C13.8642 21.2411 12.7543 20.9032 11.8105 20.2713C10.8668 19.6393 10.1316 18.7418 9.69782 17.6921C9.26408 16.6423 9.1513 15.4876 9.37373 14.3738C9.59616 13.26 10.1438 12.2371 10.9475 11.4345C11.7511 10.6319 12.7747 10.0856 13.8888 9.86464C15.0029 9.64366 16.1575 9.75795 17.2066 10.1931C18.2558 10.6282 19.1524 11.3646 19.7831 12.3091C20.4138 13.2537 20.7503 14.3641 20.75 15.4999C20.748 17.0236 20.1413 18.4842 19.0632 19.5609C17.9851 20.6376 16.5237 21.2424 15 21.2424ZM15 10.9999C14.1118 11.0011 13.2438 11.2656 12.5058 11.7598C11.7677 12.2541 11.1927 12.956 10.8534 13.7768C10.514 14.5977 10.4256 15.5007 10.5992 16.3718C10.7728 17.243 11.2006 18.0431 11.8287 18.6712C12.4568 19.2993 13.2569 19.7271 14.128 19.9007C14.9992 20.0743 15.9022 19.9859 16.7231 19.6465C17.5439 19.3072 18.2458 18.7322 18.7401 17.9941C19.2343 17.2561 19.4988 16.3881 19.5 15.4999C19.5 14.3064 19.0259 13.1618 18.182 12.3179C17.3381 11.474 16.1935 10.9999 15 10.9999Z" fill="#85B6FF"/>
<path d="M21.5 10.3813C22.2421 10.3813 22.8437 9.77973 22.8437 9.0376C22.8437 8.29546 22.2421 7.69385 21.5 7.69385C20.7579 7.69385 20.1562 8.29546 20.1562 9.0376C20.1562 9.77973 20.7579 10.3813 21.5 10.3813Z" fill="#85B6FF"/>
</svg>
