<svg width="155" height="64" viewBox="0 0 155 64" fill="none" xmlns="http://www.w3.org/2000/svg">
<path d="M73.5063 44.4849C72.9211 44.0412 72.7795 43.5928 73.0815 43.1396L74.1719 41.4971C74.5306 40.959 75.0545 40.9307 75.7437 41.4121C76.2723 41.7803 76.9614 42.1626 77.811 42.5591C78.6701 42.9461 79.5716 43.1396 80.5156 43.1396C81.1764 43.1396 81.8136 43.0641 82.4272 42.9131C83.0409 42.762 83.5081 42.4694 83.8291 42.0352C84.1501 41.6009 84.3105 41.0864 84.3105 40.4917C84.3105 40.0669 84.2397 39.694 84.0981 39.373C83.9565 39.0521 83.7253 38.7878 83.4043 38.5801C83.0833 38.3724 82.7529 38.1978 82.4131 38.0562C81.8184 37.8107 81.0679 37.57 80.1616 37.334C79.2648 37.0885 78.3774 36.7959 77.4995 36.4561C76.716 36.154 75.9985 35.7386 75.3472 35.21C74.6958 34.6813 74.1908 34.0866 73.832 33.4258C73.4733 32.765 73.2939 31.8823 73.2939 30.7778C73.2939 29.4657 73.7188 28.3423 74.5684 27.4077C75.418 26.4731 76.395 25.8737 77.4995 25.6094C78.604 25.3451 79.7179 25.2129 80.8413 25.2129C81.9552 25.2129 83.1022 25.3828 84.2822 25.7227C85.4717 26.0625 86.3685 26.4873 86.9727 26.9971C87.5674 27.4974 87.7137 27.9505 87.4116 28.3564L86.2646 29.8999C85.8776 30.4285 85.3584 30.471 84.707 30.0273C84.2917 29.7441 83.7205 29.4279 82.9937 29.0786C82.2762 28.7293 81.5257 28.5547 80.7422 28.5547C80.1852 28.5547 79.6707 28.6019 79.1987 28.6963C78.7362 28.7907 78.3255 29.0173 77.9668 29.376C77.6081 29.7347 77.4287 30.1784 77.4287 30.707C77.4287 31.2168 77.5609 31.6322 77.8252 31.9531C78.0895 32.2646 78.3822 32.5007 78.7031 32.6611C79.0241 32.8122 79.3498 32.9396 79.6802 33.0435C80.6997 33.3739 81.6107 33.6665 82.4131 33.9214C83.2155 34.1668 83.9565 34.4406 84.6362 34.7427C85.5802 35.1675 86.3024 35.5923 86.8027 36.0171C87.3031 36.4419 87.7137 37.0225 88.0347 37.7588C88.3651 38.4951 88.5303 39.373 88.5303 40.3926C88.5303 41.903 88.0488 43.1538 87.0859 44.145C86.123 45.1268 85.0516 45.7593 83.8716 46.0425C82.701 46.3351 81.5588 46.4814 80.4448 46.4814C78.8022 46.4814 77.4665 46.321 76.4375 46C75.4085 45.6885 74.4315 45.1834 73.5063 44.4849ZM92.2969 46C91.7305 46 91.4473 45.7168 91.4473 45.1504V31.9814C91.4473 31.415 91.7305 31.1318 92.2969 31.1318H94.5625C95.1289 31.1318 95.4121 31.415 95.4121 31.9814V45.1504C95.4121 45.7168 95.1289 46 94.5625 46H92.2969ZM92.2969 28.9512C91.7305 28.9512 91.4473 28.668 91.4473 28.1016V26.2891C91.4473 25.7227 91.7305 25.4395 92.2969 25.4395H94.5625C95.1289 25.4395 95.4121 25.7227 95.4121 26.2891V28.1016C95.4121 28.668 95.1289 28.9512 94.5625 28.9512H92.2969ZM100.113 46C99.5469 46 99.2637 45.7168 99.2637 45.1504V31.9814C99.2637 31.415 99.5469 31.1318 100.113 31.1318H102.351C102.917 31.1318 103.2 31.415 103.2 31.9814V32.8027H103.257C103.531 32.1986 103.993 31.7218 104.645 31.3726C105.296 31.0233 105.905 30.8486 106.471 30.8486C107.604 30.8486 108.482 31.113 109.105 31.6416C109.737 32.1702 110.172 32.7603 110.408 33.4116H110.464C111.286 32.3449 112.027 31.651 112.688 31.3301C113.358 31.0091 114.212 30.8486 115.25 30.8486C116.648 30.8486 117.823 31.3112 118.776 32.2363C119.739 33.1615 120.221 34.8512 120.221 37.3057V45.1504C120.221 45.7168 119.938 46 119.371 46H117.105C116.539 46 116.256 45.7168 116.256 45.1504V38.3252C116.256 36.2673 116.114 34.9692 115.831 34.4312C115.557 33.8931 115.066 33.624 114.358 33.624C113.698 33.624 113.093 34.0111 112.546 34.7852C111.998 35.5592 111.725 37.1546 111.725 39.5713V45.1504C111.725 45.7168 111.441 46 110.875 46H108.609C108.043 46 107.76 45.7168 107.76 45.1504V38.3252C107.76 36.2673 107.618 34.9692 107.335 34.4312C107.061 33.8931 106.57 33.624 105.862 33.624C105.201 33.624 104.597 34.0111 104.05 34.7852C103.502 35.5498 103.229 37.1452 103.229 39.5713V45.1504C103.229 45.7168 102.945 46 102.379 46H100.113ZM124.894 51.6641C124.327 51.6641 124.044 51.3809 124.044 50.8145V31.9814C124.044 31.415 124.327 31.1318 124.894 31.1318H127.131C127.603 31.1318 127.858 31.415 127.896 31.9814L127.952 32.8027H128.009C128.5 31.9909 129.047 31.4622 129.651 31.2168C130.256 30.9714 130.982 30.8486 131.832 30.8486C134.05 30.8486 135.608 31.618 136.505 33.1567C137.411 34.686 137.864 36.4891 137.864 38.5659C137.864 40.6427 137.411 42.4505 136.505 43.9893C135.608 45.5186 134.05 46.2832 131.832 46.2832C130.982 46.2832 130.256 46.1605 129.651 45.915C129.047 45.6696 128.5 45.141 128.009 44.3291H127.952C127.99 44.7067 128.009 45.0843 128.009 45.4619V50.8145C128.009 51.3809 127.726 51.6641 127.159 51.6641H124.894ZM128.009 39.2031C128.009 40.4775 128.259 41.516 128.759 42.3184C129.269 43.1113 129.878 43.5078 130.586 43.5078C131.86 43.5078 132.691 43.0641 133.078 42.1768C133.475 41.2799 133.673 40.0763 133.673 38.5659C133.673 37.0555 133.475 35.8566 133.078 34.9692C132.691 34.0724 131.86 33.624 130.586 33.624C129.878 33.624 129.269 34.0252 128.759 34.8276C128.259 35.6206 128.009 36.6543 128.009 37.9287V39.2031ZM141.772 46C141.206 46 140.923 45.7168 140.923 45.1504V28.4272C140.923 28.0024 141.022 27.6154 141.22 27.2661L142.311 25.3545C142.518 24.9958 142.764 24.8164 143.047 24.8164H144.038C144.604 24.8164 144.888 25.0996 144.888 25.666V45.1504C144.888 45.7168 144.604 46 144.038 46H141.772ZM149.589 46C149.022 46 148.739 45.7168 148.739 45.1504V31.9814C148.739 31.415 149.022 31.1318 149.589 31.1318H151.854C152.421 31.1318 152.704 31.415 152.704 31.9814V45.1504C152.704 45.7168 152.421 46 151.854 46H149.589ZM149.589 28.9512C149.022 28.9512 148.739 28.668 148.739 28.1016V26.2891C148.739 25.7227 149.022 25.4395 149.589 25.4395H151.854C152.421 25.4395 152.704 25.7227 152.704 26.2891V28.1016C152.704 28.668 152.421 28.9512 151.854 28.9512H149.589Z" fill="black"/>
<path d="M32 62C48.5685 62 62 48.5685 62 32C62 15.4315 48.5685 2 32 2C15.4315 2 2 15.4315 2 32C2 48.5685 15.4315 62 32 62Z" fill="#85B6FF"/>
<path d="M25.8 37.6C26 38.9 26.4 39.9 26.9 40.6C27.9 41.8 29.6 42.4 32.1 42.4C33.6 42.4 34.7 42.2 35.7 41.9C37.4 41.3 38.3 40.2 38.3 38.5C38.3 37.5 37.9 36.8 37 36.3C36.2 35.8 34.8 35.3 33 34.9L29.9 34.2C26.8 33.5 24.7 32.8 23.5 32C21.5 30.7 20.6 28.6 20.6 25.7C20.6 23.1 21.6 20.9 23.5 19.2C25.4 17.5 28.2 16.6 31.9 16.6C35 16.6 37.6 17.4 39.8 19C42 20.6 43.1 23 43.2 26.1H37.4C37.3 24.4 36.5 23.1 35.1 22.4C34.1 21.9 32.9 21.7 31.5 21.7C29.9 21.7 28.6 22 27.7 22.6C26.8 23.2 26.3 24.1 26.3 25.2C26.3 26.2 26.8 27 27.7 27.5C28.3 27.8 29.6 28.2 31.6 28.7L36.7 29.9C38.9 30.4 40.6 31.1 41.7 32C43.4 33.4 44.3 35.3 44.3 37.9C44.3 40.6 43.3 42.8 41.2 44.5C39.2 46.3 36.3 47.1 32.5 47.1C28.7 47.1 25.7 46.2 23.5 44.5C21.1 43 20 40.6 20 37.6H25.8Z" fill="white"/>
</svg>
