<svg width="30" height="31" viewBox="0 0 30 31" fill="none" xmlns="http://www.w3.org/2000/svg">
<path d="M26.25 9.40625C24.6344 9.40439 23.0855 8.76177 21.9431 7.61938C20.8007 6.47698 20.1581 4.92809 20.1562 3.3125C20.1562 3.18818 20.1069 3.06895 20.019 2.98104C19.931 2.89314 19.8118 2.84375 19.6875 2.84375H15C14.8757 2.84375 14.7565 2.89314 14.6685 2.98104C14.5806 3.06895 14.5312 3.18818 14.5312 3.3125V18.7812C14.5312 19.2846 14.396 19.7787 14.1399 20.212C13.8838 20.6453 13.5161 21.0019 13.0752 21.2447C12.6343 21.4874 12.1363 21.6074 11.6332 21.5921C11.1301 21.5768 10.6403 21.4267 10.2149 21.1576C9.7896 20.8885 9.44427 20.5101 9.21499 20.062C8.98571 19.614 8.88088 19.1126 8.91144 18.6101C8.94199 18.1077 9.10682 17.6227 9.38871 17.2057C9.67061 16.7888 10.0592 16.455 10.5141 16.2395C10.5942 16.2013 10.6618 16.1412 10.7091 16.0661C10.7564 15.991 10.7814 15.904 10.7812 15.8152V10.8125C10.7813 10.744 10.7663 10.6763 10.7373 10.6142C10.7084 10.5521 10.6661 10.4971 10.6136 10.4531C10.5611 10.4091 10.4996 10.3771 10.4334 10.3594C10.3672 10.3417 10.2979 10.3388 10.2305 10.3508C6.26836 11.0562 3.28125 14.6797 3.28125 18.7812C3.28125 21.019 4.1702 23.1651 5.75254 24.7475C7.33487 26.3298 9.48099 27.2188 11.7188 27.2188C13.9565 27.2188 16.1026 26.3298 17.685 24.7475C19.2673 23.1651 20.1562 21.019 20.1562 18.7812V13.325C21.9908 14.446 24.1001 15.0366 26.25 15.0312C26.3743 15.0312 26.4935 14.9819 26.5815 14.894C26.6694 14.806 26.7188 14.6868 26.7188 14.5625V9.875C26.7188 9.75068 26.6694 9.63145 26.5815 9.54354C26.4935 9.45564 26.3743 9.40625 26.25 9.40625ZM25.7812 14.0844C23.6861 13.9979 21.6624 13.2979 19.9617 12.0711C19.8916 12.0205 19.8088 11.9903 19.7226 11.9838C19.6364 11.9774 19.55 11.9949 19.4731 12.0344C19.3962 12.0739 19.3318 12.134 19.2869 12.2079C19.242 12.2818 19.2184 12.3667 19.2188 12.4531V18.7812C19.2188 20.7704 18.4286 22.678 17.0221 24.0846C15.6155 25.4911 13.7079 26.2812 11.7188 26.2812C9.72963 26.2812 7.82197 25.4911 6.41545 24.0846C5.00893 22.678 4.21875 20.7704 4.21875 18.7812C4.21875 15.3219 6.6 12.2434 9.84375 11.3984V15.5363C9.27358 15.8655 8.80013 16.339 8.47099 16.9092C8.14185 17.4794 7.96863 18.1262 7.96875 18.7846C7.96887 19.443 8.14232 20.0897 8.47166 20.6598C8.801 21.2299 9.27462 21.7032 9.84491 22.0322C10.4152 22.3612 11.062 22.5342 11.7204 22.5339C12.3788 22.5336 13.0255 22.36 13.5955 22.0305C14.1655 21.701 14.6387 21.2273 14.9675 20.6569C15.2963 20.0865 15.4692 19.4396 15.4688 18.7812V3.78125H19.234C19.3501 5.47943 20.0772 7.07814 21.2808 8.28174C22.4844 9.48534 24.0831 10.2124 25.7812 10.3285V14.0844Z" fill="#85B6FF"/>
</svg>
