<svg width="30" height="31" viewBox="0 0 30 31" fill="none" xmlns="http://www.w3.org/2000/svg">
<path d="M24.2125 10.8438V11.4688C24.2125 17.7626 19.4375 24.9751 10.7 24.9751C8.12059 24.9806 5.59596 24.2311 3.4375 22.8188C3.81236 22.8697 4.19048 22.8927 4.56875 22.8876C6.70688 22.8934 8.78489 22.1802 10.4688 20.8626C9.47542 20.8479 8.51198 20.5206 7.71535 19.927C6.91872 19.3335 6.32944 18.5039 6.03125 17.5563C6.32713 17.619 6.62879 17.6505 6.93125 17.6501C7.3536 17.6501 7.77404 17.5934 8.18125 17.4813C7.10536 17.2668 6.13745 16.6851 5.44312 15.8358C4.7488 14.9864 4.37122 13.9221 4.375 12.8251V12.7626C5.03325 13.1303 5.77123 13.3319 6.525 13.3501C5.52162 12.6898 4.80824 11.6713 4.53061 10.5027C4.25297 9.33407 4.43205 8.10356 5.03125 7.06255C6.22516 8.53098 7.71474 9.73172 9.40315 10.5867C11.0916 11.4417 12.941 11.9317 14.8312 12.0251C14.7377 11.6703 14.6935 11.3044 14.7 10.9376C14.6648 9.96812 14.9292 9.0114 15.4573 8.19765C15.9854 7.38391 16.7514 6.75269 17.6511 6.38994C18.5508 6.02719 19.5404 5.95055 20.4853 6.17044C21.4301 6.39033 22.2842 6.89607 22.9312 7.6188C23.9949 7.40416 25.0151 7.01336 25.95 6.46255C25.5955 7.58216 24.8413 8.53212 23.8313 9.1313C24.7748 9.00129 25.6946 8.73607 26.5625 8.3438C25.9335 9.30983 25.1378 10.1563 24.2125 10.8438Z" stroke="#85B6FF" stroke-linecap="round" stroke-linejoin="round"/>
</svg>
